<svg xmlns="http://www.w3.org/2000/svg" viewBox="0 0 38.481 18.848"><defs><style>.a{fill:#dbecfb;}.b{fill:none;stroke:#348af7;stroke-linecap:round;stroke-width:1.82px;}.c{fill:#348af7;}</style></defs><g transform="translate(-6755 -1712.45)"><rect class="a" width="38.482" height="18.848" rx="9.424" transform="translate(6755 1712.45)"/><g transform="translate(6761.675 1717.948)"><line class="b" x2="6.57" transform="translate(0 3.592)"/><g transform="translate(4.66) rotate(45)"><line class="b" x2="5.19" transform="translate(0 0)"/><line class="b" y2="5.19" transform="translate(5.19 0)"/></g></g><path class="c" d="M-7243.911-1638.758h-14.282a4.971,4.971,0,0,1,1.5-3.453,4.97,4.97,0,0,1,3.5-1.419,5.019,5.019,0,0,1,3.608,1.559,3.827,3.827,0,0,1,2.315-.769,3.825,3.825,0,0,1,2.7,1.125,3.814,3.814,0,0,1,1.145,2.726c-.165.084-.328.161-.486.231Zm-3.362-4.5a2.4,2.4,0,0,1-2.394-2.394,2.394,2.394,0,0,1,2.394-2.445,2.422,2.422,0,0,1,2.394,2.445A2.426,2.426,0,0,1-7247.273-1643.257Zm-5.924-.914a3.11,3.11,0,0,1-3.106-3.106,3.107,3.107,0,0,1,3.106-3.173,3.144,3.144,0,0,1,3.107,3.173A3.148,3.148,0,0,1-7253.2-1644.172Z" transform="translate(14032 3366.257)"/></g></svg>