<svg xmlns="http://www.w3.org/2000/svg" viewBox="0 0 46 46"><defs><style>.a{fill:#348af7;stroke:#348af7;}.b{fill:#fff;}.c{stroke:none;}.d{fill:none;}</style></defs><g transform="translate(-4592 319)"><g class="a" transform="translate(4592 -319)"><circle class="c" cx="23" cy="23" r="23"/><circle class="d" cx="23" cy="23" r="22.5"/></g><g transform="translate(4604.051 -308.211)"><path class="b" d="M127.28,11.979a5.989,5.989,0,1,0-5.99-5.989A6,6,0,0,0,127.28,11.979Zm0-10.193a4.2,4.2,0,1,1-4.2,4.2,4.2,4.2,0,0,1,4.2-4.2Z" transform="translate(-116)"/><path class="b" d="M4.1,269.574a9.494,9.494,0,0,1,18.987,0h1.786a11.28,11.28,0,1,0-22.559,0Z" transform="translate(-2.309 -246.809)"/></g></g></svg>