<svg xmlns="http://www.w3.org/2000/svg" width="17" height="14.928" viewBox="0 0 17 14.928">
  <g id="noun_undefined_1245151_000000" transform="translate(-16 -20.1)">
    <g id="Group_486" data-name="Group 486" transform="translate(16 20.1)">
      <path id="Path_832" data-name="Path 832" d="M25.836,21.7H16.624a.624.624,0,0,0,0,1.248h9.211a2.232,2.232,0,0,0,2.147,1.6,2.2,2.2,0,0,0,2.122-1.6h2.272a.624.624,0,0,0,0-1.248H30.1a2.224,2.224,0,0,0-4.269,0Zm3.1.624a.974.974,0,1,1-.974-.974A.991.991,0,0,1,28.931,22.322Z" transform="translate(-16 -20.1)" fill="#348af7"/>
    </g>
    <g id="Group_487" data-name="Group 487" transform="translate(16 25.093)">
      <path id="Path_833" data-name="Path 833" d="M18.347,41.7H16.624a.624.624,0,0,0,0,1.248h1.722a2.232,2.232,0,0,0,2.147,1.6,2.2,2.2,0,0,0,2.122-1.6h9.761a.624.624,0,0,0,0-1.248H22.615a2.224,2.224,0,0,0-4.269,0Zm3.1.624a.974.974,0,1,1-.974-.974A.975.975,0,0,1,21.442,42.322Z" transform="translate(-16 -40.1)" fill="#348af7"/>
    </g>
    <g id="Group_488" data-name="Group 488" transform="translate(16 30.585)">
      <path id="Path_834" data-name="Path 834" d="M22.84,63.7H16.624a.624.624,0,0,0,0,1.248H22.84a2.232,2.232,0,0,0,2.147,1.6,2.2,2.2,0,0,0,2.122-1.6h5.267a.624.624,0,0,0,0-1.248H27.109a2.224,2.224,0,0,0-4.269,0Zm3.1.624a.974.974,0,1,1-.974-.974A.975.975,0,0,1,25.935,64.322Z" transform="translate(-16 -62.1)" fill="#348af7"/>
    </g>
  </g>
</svg>
