<svg xmlns="http://www.w3.org/2000/svg" width="15" height="15.001" viewBox="0 0 15 15.001">
  <g id="Help" transform="translate(-0.005)">
    <g id="Group_1304" data-name="Group 1304" transform="translate(0.006)">
      <g id="Group_1303" data-name="Group 1303">
        <path id="Path_938" data-name="Path 938" d="M7.506,0a7.5,7.5,0,1,0,7.5,7.5A7.5,7.5,0,0,0,7.506,0ZM8.04,11.67a.883.883,0,0,1-.6.233.913.913,0,0,1-.619-.23.805.805,0,0,1-.265-.643.828.828,0,0,1,.256-.616.864.864,0,0,1,.628-.25.854.854,0,0,1,.867.866A.813.813,0,0,1,8.04,11.67Zm2.172-5.385a2.652,2.652,0,0,1-.477.643q-.276.271-.992.91a4.1,4.1,0,0,0-.317.317,1.291,1.291,0,0,0-.177.25,1.205,1.205,0,0,0-.09.227q-.032.113-.1.4a.647.647,0,0,1-.692.6.709.709,0,0,1-.509-.2.777.777,0,0,1-.206-.587A2.165,2.165,0,0,1,6.808,8a2.139,2.139,0,0,1,.4-.628,9.2,9.2,0,0,1,.675-.643q.372-.326.538-.491A1.663,1.663,0,0,0,8.7,5.872a.889.889,0,0,0,.113-.442,1.026,1.026,0,0,0-.346-.785,1.264,1.264,0,0,0-.893-.32,1.235,1.235,0,0,0-.942.323,2.575,2.575,0,0,0-.512.951q-.2.657-.75.657a.738.738,0,0,1-.55-.23.7.7,0,0,1-.224-.5,2.1,2.1,0,0,1,.355-1.12,2.73,2.73,0,0,1,1.035-.939A3.256,3.256,0,0,1,7.575,3.1a3.387,3.387,0,0,1,1.489.311,2.413,2.413,0,0,1,1,.846,2.076,2.076,0,0,1,.352,1.163A1.791,1.791,0,0,1,10.212,6.285Z" transform="translate(-0.006)" fill="#348af7"/>
      </g>
    </g>
  </g>
</svg>
