<svg xmlns="http://www.w3.org/2000/svg" width="10.444" height="11.687" viewBox="0 0 10.444 11.687"><defs><style>.a{fill:#fff;}</style></defs><g transform="translate(-4.899 -1.38)"><g transform="translate(4.899 1.38)"><path class="a" d="M14,1.38H6.238A1.343,1.343,0,0,0,4.9,2.719v6.6a1.335,1.335,0,0,0,1.339,1.339H8.356l1.765,2.41,1.765-2.4H14a1.335,1.335,0,0,0,1.339-1.339V2.719A1.343,1.343,0,0,0,14,1.38ZM10.414,7.041l-.889.876-.876-.889L7.8,6.176,8.685,5.3l.852.852L11.57,4.131l.876.889Z" transform="translate(-4.899 -1.38)"/></g></g></svg>