<svg xmlns="http://www.w3.org/2000/svg" width="20.332" height="20.332" viewBox="0 0 20.332 20.332">
  <g id="Symbol_22_1" data-name="Symbol 22 – 1" transform="translate(-327 -625)">
    <ellipse id="Ellipse_33" data-name="Ellipse 33" cx="10.166" cy="10.166" rx="10.166" ry="10.166" transform="translate(327 625)" fill="#dff0ff"/>
    <path id="Path_210" data-name="Path 210" d="M64.664,26.626h.878a4.9,4.9,0,0,0-1.478-1.3A6.316,6.316,0,0,1,64.664,26.626Z" transform="translate(275.864 604.922)" fill="none"/>
    <path id="Path_211" data-name="Path 211" d="M28.192,26.626a6.325,6.325,0,0,1,.6-1.3,4.9,4.9,0,0,0-1.478,1.3Z" transform="translate(306.314 604.922)" fill="none"/>
    <path id="Path_212" data-name="Path 212" d="M69.036,38.338a9.561,9.561,0,0,1,.189,1.513h1.395a4.832,4.832,0,0,0-.407-1.513Z" transform="translate(271.744 594.14)" fill="none"/>
    <path id="Path_213" data-name="Path 213" d="M52.834,52.834v1.513h1.778a8.509,8.509,0,0,0,.216-1.513Z" transform="translate(285.168 582.129)" fill="none"/>
    <path id="Path_214" data-name="Path 214" d="M70.62,52.834H69.226a9.567,9.567,0,0,1-.189,1.513h1.177A4.834,4.834,0,0,0,70.62,52.834Z" transform="translate(271.743 582.129)" fill="none"/>
    <path id="Path_215" data-name="Path 215" d="M39.967,68.932V67.088H38.478A3.13,3.13,0,0,0,39.967,68.932Z" transform="translate(297.063 570.318)" fill="none"/>
    <path id="Path_216" data-name="Path 216" d="M28.192,67.088h-.878a4.9,4.9,0,0,0,1.478,1.3A6.316,6.316,0,0,1,28.192,67.088Z" transform="translate(306.314 570.318)" fill="none"/>
    <path id="Path_217" data-name="Path 217" d="M37.53,52.834H35.536a8.527,8.527,0,0,0,.216,1.513H37.53Z" transform="translate(299.501 582.129)" fill="none"/>
    <path id="Path_218" data-name="Path 218" d="M64.664,67.088a6.326,6.326,0,0,1-.6,1.3,4.9,4.9,0,0,0,1.478-1.3Z" transform="translate(275.864 570.318)" fill="none"/>
    <path id="Path_219" data-name="Path 219" d="M52.834,67.088v1.844a3.132,3.132,0,0,0,1.489-1.844Z" transform="translate(285.168 570.318)" fill="none"/>
    <path id="Path_220" data-name="Path 220" d="M37.53,39.851V38.338H35.752a8.509,8.509,0,0,0-.216,1.513Z" transform="translate(299.501 594.14)" fill="none"/>
    <path id="Path_221" data-name="Path 221" d="M21.726,39.851h1.395a9.567,9.567,0,0,1,.189-1.513H22.133A4.833,4.833,0,0,0,21.726,39.851Z" transform="translate(310.944 594.14)" fill="none"/>
    <path id="Path_222" data-name="Path 222" d="M54.828,39.851a8.527,8.527,0,0,0-.216-1.513H52.834v1.513Z" transform="translate(285.168 594.14)" fill="none"/>
    <path id="Path_223" data-name="Path 223" d="M39.967,24V22.155A3.132,3.132,0,0,0,38.478,24h1.489Z" transform="translate(297.063 607.549)" fill="none"/>
    <path id="Path_224" data-name="Path 224" d="M23.121,52.834H21.726a4.831,4.831,0,0,0,.407,1.513h1.177A9.6,9.6,0,0,1,23.121,52.834Z" transform="translate(310.944 582.129)" fill="none"/>
    <path id="Path_225" data-name="Path 225" d="M52.834,22.155V24h1.489A3.13,3.13,0,0,0,52.834,22.155Z" transform="translate(285.168 607.549)" fill="none"/>
    <g id="Group_473" data-name="Group 473" transform="translate(332.5 630.5)">
      <line id="Line_22" data-name="Line 22" x2="3.2" y2="3.3" transform="translate(0.5 4.7)" fill="none" stroke="#348af7" stroke-linecap="round" stroke-linejoin="round" stroke-miterlimit="10" stroke-width="1"/>
      <line id="Line_23" data-name="Line 23" y1="7.5" x2="5.1" transform="translate(3.7 0.5)" fill="none" stroke="#348af7" stroke-linecap="round" stroke-linejoin="round" stroke-miterlimit="10" stroke-width="1"/>
    </g>
  </g>
</svg>
