<svg xmlns="http://www.w3.org/2000/svg" width="20.624" height="19.187" viewBox="0 0 20.624 19.187">
  <g id="Group_1184" data-name="Group 1184" transform="translate(-1954 -518.407)" opacity="0.5">
    <path id="Subtraction_2" data-name="Subtraction 2" d="M10.311,20.773a7.234,7.234,0,0,1-1.428-.148l1.564-2.709a3.587,3.587,0,0,0,3.513-3.647,3.705,3.705,0,0,0-.412-1.724l1.777-3.079a19.279,19.279,0,0,1,4.98,4.327l.318.475-.476.635C19.955,15.288,15.193,20.773,10.311,20.773ZM4.337,18.5h0a18.712,18.712,0,0,1-3.86-3.6L0,14.269l.634-.475c.19-.382,4.931-5.849,9.808-5.87l-1.77,3.065a3.6,3.6,0,0,0-2.01,3.28c0,.064,0,.13,0,.194L4.337,18.5Z" transform="translate(1954 514.077)" fill="#fff"/>
    <rect id="Rectangle_960" data-name="Rectangle 960" width="2" height="21" rx="1" transform="translate(1968.518 518.407) rotate(30)" fill="#fff"/>
  </g>
</svg>
