<svg xmlns="http://www.w3.org/2000/svg" viewBox="0 0 17 15.9"><defs><style>.a{fill:#fff;}</style></defs><path class="a" d="M9.1,1.9v.9a5.121,5.121,0,0,1,5.1,5.1h.9A6.018,6.018,0,0,0,9.1,1.9Z"/><path class="a" d="M9.1,0V.9a7.02,7.02,0,0,1,7,7H17A7.982,7.982,0,0,0,9.1,0Z"/><path class="a" d="M14.1,12.1v3.5a10.075,10.075,0,0,1-2.5.3,10.075,10.075,0,0,1-2.5-.3A11.738,11.738,0,0,1,.2,6.7,19.481,19.481,0,0,1,0,4.2,10.075,10.075,0,0,1,.3,1.7H3.6a.472.472,0,0,1,.5.5V5.6a1,1,0,0,1-1,1H2.3a9.81,9.81,0,0,0,6.9,6.9v-.9a1,1,0,0,1,1-1h3.4A.472.472,0,0,1,14.1,12.1Z"/></svg>