<svg xmlns="http://www.w3.org/2000/svg" viewBox="0 0 21 19.9"><defs><style>.a{fill:#348af7;}.b{fill:none;stroke:#000;stroke-linecap:round;stroke-miterlimit:10;stroke-width:1.4px;}</style></defs><g transform="translate(-117 -136)"><g transform="translate(117 136)"><path class="a" d="M10.5,19.9a10.06,10.06,0,0,1-9.8-8,.688.688,0,0,1,.5-.8.779.779,0,0,1,.9.6,8.568,8.568,0,0,0,8.4,6.9,8.481,8.481,0,0,0,8.4-7,.707.707,0,1,1,1.4.2A10.049,10.049,0,0,1,10.5,19.9Z"/></g><g transform="translate(117 136)"><path class="a" d="M1.4,8.7H1.3C.9,8.6.6,8.2.7,7.9A10.054,10.054,0,0,1,10.5,0a9.855,9.855,0,0,1,9.7,7.8.667.667,0,1,1-1.3.3,8.616,8.616,0,0,0-16.8,0A.73.73,0,0,1,1.4,8.7Z"/></g><path class="b" d="M20.2,7.8" transform="translate(117 136)"/><path class="a" d="M.8,8.8a.764.764,0,0,1-.5-.2A.864.864,0,0,1,0,8V2a.684.684,0,0,1,.7-.7.684.684,0,0,1,.7.7V7.3H6.7a.684.684,0,0,1,.7.7.773.773,0,0,1-.7.8Z" transform="translate(117 136)"/><path class="a" d="M20.3,10.9a.684.684,0,0,1,.7.7v6a.7.7,0,1,1-1.4,0V12.3H14.3a.7.7,0,1,1,0-1.4Z" transform="translate(117 136)"/><path class="b" d="M20.3,11.8" transform="translate(117 136)"/></g></svg>