<svg xmlns="http://www.w3.org/2000/svg" viewBox="0 0 15.688 15.816"><defs><style>.a{fill:#fff;}.b,.c{stroke:none;}.c{fill:#348af7;}</style></defs><g transform="translate(-1234.232 -583.732)"><g class="a" transform="translate(2789.333 583.833)"><path class="b" d="M -1540.322143554688 14.80512237548828 C -1540.322509765625 14.80512237548828 -1540.322875976563 14.80507278442383 -1540.322875976563 14.80505275726318 L -1543.264526367188 11.86274242401123 L -1543.822509765625 11.30477237701416 L -1544.453857421875 11.77808284759521 C -1545.5107421875 12.57041263580322 -1546.771728515625 12.98924255371094 -1548.1005859375 12.98930263519287 C -1549.727172851563 12.9893627166748 -1551.256469726563 12.35602283477783 -1552.406494140625 11.20594215393066 C -1553.557006835938 10.05542278289795 -1554.190673828125 8.526002883911133 -1554.190673828125 6.899402618408203 C -1554.190673828125 5.272802352905273 -1553.557006835938 3.743382453918457 -1552.406494140625 2.592872381210327 C -1551.25634765625 1.442802429199219 -1549.727172851563 0.8094323873519897 -1548.100341796875 0.8094323873519897 C -1546.4736328125 0.8094323873519897 -1544.944458007813 1.442802429199219 -1543.794311523438 2.592862367630005 C -1541.609497070313 4.778382301330566 -1541.404907226563 8.2513427734375 -1543.318359375 10.67118263244629 L -1543.820556640625 11.30643272399902 L -1543.247924804688 11.87908267974854 L -1540.322021484375 14.80497264862061 L -1540.322143554688 14.80512237548828 Z"/><path class="c" d="M -1548.1005859375 12.07930278778076 C -1546.970092773438 12.07925224304199 -1545.897827148438 11.72332286834717 -1544.999633789063 11.04997253417969 L -1544.455200195313 10.64180469512939 L -1544.032104492188 10.10675239562988 C -1542.405029296875 8.049002647399902 -1542.579467773438 5.095282554626465 -1544.437866210938 3.236322402954102 C -1545.416015625 2.258142471313477 -1546.716674804688 1.719432353973389 -1548.100341796875 1.719432353973389 C -1549.484130859375 1.719432353973389 -1550.784790039063 2.258142471313477 -1551.763061523438 3.236352443695068 C -1552.74169921875 4.214972496032715 -1553.280639648438 5.515872478485107 -1553.280639648438 6.899402618408203 C -1553.280639648438 8.282932281494141 -1552.74169921875 9.583832740783691 -1551.762939453125 10.5624828338623 C -1550.784790039063 11.54067230224609 -1549.484130859375 12.07935237884521 -1548.1005859375 12.07930278778076 M -1540.322143554688 15.71512222290039 C -1540.555053710938 15.71512222290039 -1540.787841796875 15.62625217437744 -1540.965698242188 15.44850254058838 L -1543.907958984375 12.50620269775391 C -1545.146728515625 13.4348669052124 -1546.623779296875 13.8992395401001 -1548.100463867188 13.8992977142334 C -1549.891967773438 13.89936828613281 -1551.683227539063 13.21608352661133 -1553.049926757813 11.84940242767334 C -1555.7841796875 9.115201950073242 -1555.7841796875 4.683602333068848 -1553.049926757813 1.949402451515198 C -1551.683349609375 0.5827524065971375 -1549.891845703125 -0.1005725860595703 -1548.100341796875 -0.1005725860595703 C -1546.308959960938 -0.1005725860595703 -1544.517456054688 0.5827524065971375 -1543.15087890625 1.949402451515198 C -1540.61376953125 4.487342357635498 -1540.431640625 8.487722396850586 -1542.6044921875 11.2356128692627 L -1539.678588867188 14.16150283813477 C -1539.323120117188 14.51700210571289 -1539.323120117188 15.09300231933594 -1539.678588867188 15.44850254058838 C -1539.8564453125 15.62625217437744 -1540.089233398438 15.71512222290039 -1540.322143554688 15.71512222290039 Z"/></g></g></svg>