<?xml version="1.0" encoding="utf-8"?>
<!-- Generator: Adobe Illustrator 23.0.1, SVG Export Plug-In . SVG Version: 6.00 Build 0)  -->
<svg version="1.1" id="Layer_1" xmlns="http://www.w3.org/2000/svg" xmlns:xlink="http://www.w3.org/1999/xlink" x="0px" y="0px"
	 viewBox="0 0 14 10" style="enable-background:new 0 0 14 10;" xml:space="preserve">
<style type="text/css">
	.st0{fill:#FFFFFF;}
</style>
<path class="st0" d="M6.7,9.79c-0.28,0.28-0.65,0.42-1.04,0.4c-0.39,0.02-0.77-0.13-1.04-0.4L0.57,5.76c-0.54-0.54-0.54-1.41,0-1.95
	c0.54-0.54,1.41-0.54,1.95,0c0,0,0,0,0,0l3.13,3.13l6.34-6.34c0.54-0.54,1.41-0.54,1.95,0c0,0,0,0,0,0c0.54,0.54,0.54,1.41,0,1.95
	L6.7,9.79z"/>
</svg>
