<?xml version="1.0" encoding="iso-8859-1"?>
<!-- Generator: Adobe Illustrator 19.0.0, SVG Export Plug-In . SVG Version: 6.00 Build 0)  -->
<svg version="1.1" id="Capa_1" xmlns="http://www.w3.org/2000/svg" xmlns:xlink="http://www.w3.org/1999/xlink" x="0px" y="0px"
	 viewBox="0 0 513.067 513.067" style="enable-background:new 0 0 513.067 513.067;" xml:space="preserve">
<path style="fill:#435B6C;" d="M421.867,237.867c0,0-9.6,2.133-26.667,5.333c-17.067,4.267-41.6,9.6-70.4,18.133
	c-14.933,4.267-30.933,9.6-46.933,16s-34.133,14.933-51.2,27.733c-4.267,3.2-8.533,7.467-12.8,11.733l-3.2,4.267L209.6,323.2
	l-2.133,3.2c-1.067,2.133-2.133,3.2-3.2,5.333l-1.067,3.2V336c0,0-1.067,3.2-1.067,2.133l0,0v1.067v2.133
	c0,2.133-1.067,5.333,0,7.467c0,2.133,0,5.333,1.067,7.467c0,2.133,1.067,4.267,2.133,6.4c3.2,7.467,7.467,12.8,10.667,18.133
	c16,18.133,32,29.867,48,42.667c7.467,6.4,14.933,11.733,21.333,18.133c3.2,2.133,5.333,5.333,6.4,7.467
	c-3.2,2.133-8.533,3.2-13.867,5.333c-13.867,4.267-30.933,5.333-45.867,6.4c-16,1.067-30.933,1.067-45.867,0
	c-28.8-1.067-52.267-3.2-69.333-4.267c-8.533-1.067-14.933-2.133-19.2-2.133c-4.267-1.067-6.4-1.067-6.4-1.067l-5.333,56.533
	c0,0,10.667,1.067,27.733,2.133c18.133,1.067,42.667,1.067,73.6,1.067c14.933,0,32-1.067,49.067-3.2
	c18.133-2.133,36.267-5.333,56.533-11.733c9.6-3.2,20.267-7.467,29.867-16c2.133-2.133,5.333-4.267,7.467-7.467
	c1.067-1.067,2.133-3.2,3.2-4.267l1.067-2.133l1.067-1.067l0,0l1.067-2.133l0,0l1.067-2.133v-1.067v-2.133
	c1.067-3.2,1.067-6.4,0-8.533c0-5.333-2.133-8.533-3.2-12.8c-7.467-13.867-16-20.267-23.467-27.733
	c-8.533-6.4-17.067-12.8-24.533-18.133c-16-11.733-33.067-22.4-43.733-34.133c-3.2-3.2-4.267-5.333-5.333-7.467
	s-1.067-2.133,0-2.133l1.067-3.2l1.067-1.067c0,0,2.133-2.133,2.133-3.2c2.133-2.133,5.333-5.333,7.467-7.467
	c11.733-10.667,27.733-18.133,42.667-25.6c14.933-7.467,29.867-12.8,42.667-18.133c27.733-9.6,51.2-17.067,67.2-21.333
	c8.533-2.133,14.933-4.267,19.2-5.333c4.267-1.067,6.4-2.133,6.4-2.133L421.867,237.867z M296,453.333c0,0,0-1.067,0-2.133
	C296,453.333,296,454.4,296,453.333C296,454.4,296,454.4,296,453.333z M296,445.867L296,445.867L296,445.867z"/>
<path style="fill:#67C6B9;" d="M88,250.667c-48,0-87.467,38.4-87.467,86.4S88,509.867,88,509.867s87.467-124.8,87.467-172.8
	S136,250.667,88,250.667z"/>
<ellipse style="fill:#FFFFFF;" cx="88" cy="338.133" rx="51.2" ry="51.2"/>
<path style="fill:#F3705B;" d="M102.933,363.733l-4.267-10.667H77.333l-4.267,10.667h-12.8l22.4-51.2h10.667l22.4,51.2H102.933z
	 M88,327.467L81.6,342.4h12.8L88,327.467z"/>
<path style="fill:#FFD15D;" d="M425.067,0c-48,0-87.467,38.4-87.467,86.4s87.467,172.8,87.467,172.8s87.467-124.8,87.467-172.8
	S473.067,0,425.067,0z"/>
<ellipse style="fill:#FFFFFF;" cx="425.067" cy="86.4" rx="51.2" ry="51.2"/>
<path style="fill:#F3705B;" d="M447.467,90.667c-2.133-2.133-4.267-3.2-7.467-4.267c1.067-1.067,2.133-1.067,2.133-1.067
	s1.067-1.067,2.133-1.067c2.133-2.133,4.267-5.333,4.267-8.533c0-3.2-1.067-6.4-3.2-8.533c-1.067-1.067-3.2-2.133-5.333-3.2
	c-2.133-1.067-5.333-1.067-8.533-1.067H411.2v51.2h22.4c7.467,0,11.733-1.067,14.933-4.267c2.133-3.2,3.2-6.4,3.2-9.6
	C450.667,94.933,449.6,92.8,447.467,90.667z M420.8,71.467h6.4c3.2,0,5.333,0,7.467,1.067c1.067,1.067,2.133,2.133,2.133,4.267
	c0,2.133-1.067,4.267-2.133,4.267c-1.067,1.067-4.267,1.067-7.467,1.067h-5.333V71.467H420.8z M436.8,101.333
	c-2.133,1.067-4.267,1.067-7.467,1.067h-7.467V90.667h6.4c4.267,0,6.4,0,8.533,1.067c2.133,1.067,2.133,2.133,2.133,4.267
	C438.933,99.2,437.867,101.333,436.8,101.333z"/>
<g>
</g>
<g>
</g>
<g>
</g>
<g>
</g>
<g>
</g>
<g>
</g>
<g>
</g>
<g>
</g>
<g>
</g>
<g>
</g>
<g>
</g>
<g>
</g>
<g>
</g>
<g>
</g>
<g>
</g>
</svg>
